<?xml version="1.0" encoding="UTF-8"?>
<svg id="Layer_1" data-name="Layer 1" xmlns="http://www.w3.org/2000/svg" viewBox="0 0 575.96 448">
  <defs>
    <style>
      .cls-1 {
        fill: #c2a649;
      }
    </style>
  </defs>
  <path class="cls-1" d="M384,448h48c11.4,0,21.9-6,27.6-15.9l112-192c5.8-9.9,5.8-22.1.1-32.1s-16.2-16-27.7-16H144c-11.4,0-21.9,6-27.6,15.9l-68.4,117.2V64c0-8.8,7.2-16,16-16h117.5c4.2,0,8.3,1.7,11.3,4.7l26.5,26.5c21,21,49.5,32.8,79.2,32.8h117.5c8.8,0,16,7.2,16,16v32h48v-32c0-35.3-28.7-64-64-64h-117.5c-17,0-33.3-6.7-45.3-18.7l-26.5-26.6C214.7,6.7,198.4,0,181.4,0h-117.4C28.7,0,0,28.7,0,64v320c0,35.3,28.7,64,64,64h320Z"/>
</svg>