<?xml version="1.0" encoding="UTF-8"?>
<svg id="Layer_1" data-name="Layer 1" xmlns="http://www.w3.org/2000/svg" viewBox="0 0 448 512">
  <path d="M304,128c0-44.18-35.82-80-80-80s-80,35.82-80,80,35.82,80,80,80,80-35.82,80-80ZM96,128C96,57.31,153.31,0,224,0s128,57.31,128,128-57.31,128-128,128-128-57.31-128-128ZM49.3,464h349.5c-8.9-63.3-63.3-112-129-112h-91.4c-65.7,0-120.1,48.7-129,112h-.1ZM0,482.3c0-98.5,79.8-178.3,178.3-178.3h91.4c98.5,0,178.3,79.8,178.3,178.3,0,16.4-13.3,29.7-29.7,29.7H29.7c-16.4,0-29.7-13.3-29.7-29.7Z"/>
</svg>